<svg xmlns="http://www.w3.org/2000/svg" width="32" height="32" viewBox="0 0 32 32">
  <!-- ďąű:ß · %ŔrĎ ­4 · íą (3,2) -->
  <rect x="2" y="2" width="4" height="4" fill="#fcd34d"/>
  <rect x="6" y="6" width="4" height="4" fill="#fcd34d"/>
  <rect x="10" y="10" width="4" height="4" fill="#fcd34d"/>
  <rect x="14" y="14" width="4" height="4" fill="#fcd34d"/>
  <rect x="6" y="10" width="4" height="4" fill="#fcd34d"/>
  <rect x="6" y="14" width="4" height="4" fill="#fcd34d"/>
  <rect x="10" y="14" width="4" height="4" fill="#fcd34d"/>
  <rect x="2" y="6" width="4" height="4" fill="#fcd34d"/>
  <rect x="2" y="2" width="4" height="4" fill="#4a3220"/>
  <rect x="6" y="2" width="4" height="4" fill="#4a3220"/>
  <rect x="2" y="6" width="4" height="4" fill="#4a3220"/>
  <rect x="6" y="6" width="4" height="4" fill="#7b181b"/>
  <rect x="10" y="6" width="4" height="4" fill="#4a3220"/>
  <rect x="6" y="10" width="4" height="4" fill="#4a3220"/>
  <rect x="10" y="10" width="4" height="4" fill="#7b181b"/>
  <rect x="14" y="10" width="4" height="4" fill="#4a3220"/>
  <rect x="10" y="14" width="4" height="4" fill="#4a3220"/>
  <rect x="14" y="14" width="4" height="4" fill="#7b181b"/>
  <rect x="18" y="14" width="4" height="4" fill="#4a3220"/>
  <rect x="6" y="18" width="4" height="4" fill="#4a3220"/>
  <rect x="10" y="18" width="4" height="4" fill="#4a3220"/>
</svg>
